{"asset":{"version":"2.0","generator":"Blockbench 5.0.4 glTF exporter"},"scenes":[{"nodes":[11],"name":"blockbench_export"}],"scene":0,"nodes":[{"translation":[0,0.4375,0],"name":"horn"},{"translation":[0,0.5,0],"name":"head_top","children":[0]},{"rotation":[0,0,0.7960020025346219,0.6052939880428945],"translation":[-0.015625,0.140625,-0.025],"name":"eye_base_left_shine"},{"rotation":[0,0,0.8191520442889917,0.5735764363510462],"translation":[0,0.0875,0.01875],"name":"eye_base_left_reflection"},{"translation":[-0.7875,0.25,-0.4375],"name":"eye_base_left","children":[2,3]},{"rotation":[0,0,0.7960020025346219,0.6052939880428945],"translation":[-0.015625,0.140625,-0.025],"name":"eye_base_right_shine"},{"rotation":[0,0,0.8191520442889917,0.5735764363510462],"translation":[0,0.0875,0.01875],"name":"eye_base_right_reflection"},{"translation":[-0.7875,0.25,0.453125],"name":"eye_base_right","children":[5,6]},{"translation":[0,0.1875,0],"name":"skull","children":[1,4,7]},{"translation":[0,0.34375,0],"name":"spine_neck","children":[8]},{"translation":[0,-0.6875,0],"name":"spine_base","children":[9]},{"name":"armature","mesh":0,"children":[10],"skin":0}],"bufferViews":[{"buffer":0,"byteOffset":0,"byteLength":2592,"target":34962,"byteStride":12},{"buffer":0,"byteOffset":2592,"byteLength":2592,"target":34962,"byteStride":12},{"buffer":0,"byteOffset":5184,"byteLength":1728,"target":34962,"byteStride":8},{"buffer":0,"byteOffset":6912,"byteLength":1728,"target":34962,"byteStride":8},{"buffer":0,"byteOffset":8640,"byteLength":3456,"target":34962,"byteStride":16},{"buffer":0,"byteOffset":12096,"byteLength":72,"target":34963},{"buffer":0,"byteOffset":12168,"byteLength":72,"target":34963},{"buffer":0,"byteOffset":12240,"byteLength":144,"target":34963},{"buffer":0,"byteOffset":12384,"byteLength":72,"target":34963},{"buffer":0,"byteOffset":12456,"byteLength":72,"target":34963},{"buffer":0,"byteOffset":12528,"byteLength":704},{"buffer":0,"byteOffset":13232,"byteLength":16},{"buffer":0,"byteOffset":13248,"byteLength":64},{"buffer":0,"byteOffset":13312,"byteLength":16},{"buffer":0,"byteOffset":13328,"byteLength":48},{"buffer":0,"byteOffset":13376,"byteLength":16},{"buffer":0,"byteOffset":13392,"byteLength":64},{"buffer":0,"byteOffset":13456,"byteLength":12},{"buffer":0,"byteOffset":13468,"byteLength":36},{"buffer":0,"byteOffset":13504,"byteLength":12},{"buffer":0,"byteOffset":13516,"byteLength":48},{"buffer":0,"byteOffset":13564,"byteLength":12},{"buffer":0,"byteOffset":13576,"byteLength":36},{"buffer":0,"byteOffset":13612,"byteLength":12},{"buffer":0,"byteOffset":13624,"byteLength":36},{"buffer":0,"byteOffset":13660,"byteLength":8},{"buffer":0,"byteOffset":13668,"byteLength":24},{"buffer":0,"byteOffset":13692,"byteLength":8},{"buffer":0,"byteOffset":13700,"byteLength":32},{"buffer":0,"byteOffset":13732,"byteLength":12},{"buffer":0,"byteOffset":13744,"byteLength":36},{"buffer":0,"byteOffset":13780,"byteLength":12},{"buffer":0,"byteOffset":13792,"byteLength":36},{"buffer":0,"byteOffset":13828,"byteLength":12},{"buffer":0,"byteOffset":13840,"byteLength":36},{"buffer":0,"byteOffset":13876,"byteLength":12},{"buffer":0,"byteOffset":13888,"byteLength":36},{"buffer":0,"byteOffset":13924,"byteLength":12},{"buffer":0,"byteOffset":13936,"byteLength":36},{"buffer":0,"byteOffset":13972,"byteLength":20},{"buffer":0,"byteOffset":13992,"byteLength":80},{"buffer":0,"byteOffset":14072,"byteLength":132},{"buffer":0,"byteOffset":14204,"byteLength":396},{"buffer":0,"byteOffset":14600,"byteLength":20},{"buffer":0,"byteOffset":14620,"byteLength":80},{"buffer":0,"byteOffset":14700,"byteLength":20},{"buffer":0,"byteOffset":14720,"byteLength":60},{"buffer":0,"byteOffset":14780,"byteLength":16},{"buffer":0,"byteOffset":14796,"byteLength":48},{"buffer":0,"byteOffset":14844,"byteLength":12},{"buffer":0,"byteOffset":14856,"byteLength":36},{"buffer":0,"byteOffset":14892,"byteLength":16},{"buffer":0,"byteOffset":14908,"byteLength":48},{"buffer":0,"byteOffset":14956,"byteLength":12},{"buffer":0,"byteOffset":14968,"byteLength":36},{"buffer":0,"byteOffset":15004,"byteLength":16},{"buffer":0,"byteOffset":15020,"byteLength":48},{"buffer":0,"byteOffset":15068,"byteLength":16},{"buffer":0,"byteOffset":15084,"byteLength":48},{"buffer":0,"byteOffset":15132,"byteLength":12},{"buffer":0,"byteOffset":15144,"byteLength":36}],"buffers":[{"byteLength":15180,"uri":"data:application/octet-stream;base64,"}],"accessors":[{"bufferView":0,"componentType":5126,"count":216,"max":[-0.9125000238418579,0.265625,0.515625],"min":[-0.9203125238418579,0.109375,-0.515625],"type":"VEC3"},{"bufferView":1,"componentType":5126,"count":216,"max":[1,2.220446049250313e-16,0],"min":[-1,2.220446049250313e-16,0],"type":"VEC3"},{"bufferView":2,"componentType":5126,"count":216,"max":[4.1411051750183105,4.141104698181152],"min":[0,0],"type":"VEC2"},{"bufferView":3,"componentType":5123,"count":216,"max":[10,0,0,0],"min":[5,0,0,0],"type":"VEC4"},{"bufferView":4,"componentType":5126,"count":216,"max":[1,0,0,0],"min":[1,0,0,0],"type":"VEC4"},{"bufferView":5,"componentType":5123,"count":36,"max":[35],"min":[0],"type":"SCALAR"},{"bufferView":6,"componentType":5123,"count":36,"max":[71],"min":[36],"type":"SCALAR"},{"bufferView":7,"componentType":5123,"count":72,"max":[143],"min":[72],"type":"SCALAR"},{"bufferView":8,"componentType":5123,"count":36,"max":[179],"min":[144],"type":"SCALAR"},{"bufferView":9,"componentType":5123,"count":36,"max":[215],"min":[180],"type":"SCALAR"},{"bufferView":10,"componentType":5126,"count":11,"max":[1,0,0,0,0.9636304378509521,1,0,0,0,0,1,0,0.7875000238418579,0.6875,0.4625000059604645,1],"min":[-0.3420201539993286,-0.9636304378509521,0,0,0,-0.3420201539993286,0,0,0,0,1,0,-0.4404767155647278,-0.78125,-0.47187501192092896,1],"type":"MAT4"},{"bufferView":11,"componentType":5126,"count":4,"max":[1.5416699647903442],"min":[0],"type":"SCALAR"},{"bufferView":12,"componentType":5126,"count":4,"max":[0.02181488461792469,0,0,1],"min":[-0.02181488461792469,0,0,0.9997619986534119],"type":"VEC4"},{"bufferView":13,"componentType":5126,"count":4,"max":[1.5416699647903442],"min":[0],"type":"SCALAR"},{"bufferView":14,"componentType":5126,"count":4,"max":[0,0.46875,0],"min":[0,0.34375,0],"type":"VEC3"},{"bufferView":15,"componentType":5126,"count":4,"max":[1.5416699647903442],"min":[0],"type":"SCALAR"},{"bufferView":16,"componentType":5126,"count":4,"max":[0.10886687785387039,0,0,1],"min":[0,0,0,0.9940563440322876],"type":"VEC4"},{"bufferView":17,"componentType":5126,"count":3,"max":[1.5416699647903442],"min":[0],"type":"SCALAR"},{"bufferView":18,"componentType":5126,"count":3,"max":[1,1,1],"min":[1,1,1],"type":"VEC3"},{"bufferView":19,"componentType":5126,"count":3,"max":[1.5416699647903442],"min":[0],"type":"SCALAR"},{"bufferView":20,"componentType":5126,"count":3,"max":[0,0,0,1],"min":[-0.10886687785387039,0,0,0.9940563440322876],"type":"VEC4"},{"bufferView":21,"componentType":5126,"count":3,"max":[1.5416699647903442],"min":[0],"type":"SCALAR"},{"bufferView":22,"componentType":5126,"count":3,"max":[0,0.5,0],"min":[0,0.375,0],"type":"VEC3"},{"bufferView":23,"componentType":5126,"count":3,"max":[1.5416699647903442],"min":[0],"type":"SCALAR"},{"bufferView":24,"componentType":5126,"count":3,"max":[1,1,1],"min":[1,1,1],"type":"VEC3"},{"bufferView":25,"componentType":5126,"count":2,"max":[1.5416699647903442],"min":[0],"type":"SCALAR"},{"bufferView":26,"componentType":5126,"count":2,"max":[0,0.4375,0],"min":[0,0.4375,0],"type":"VEC3"},{"bufferView":27,"componentType":5126,"count":2,"max":[1.5416699647903442],"min":[0],"type":"SCALAR"},{"bufferView":28,"componentType":5126,"count":2,"max":[0,0,0,1],"min":[0,0,0,1],"type":"VEC4"},{"bufferView":29,"componentType":5126,"count":3,"max":[1.5416699647903442],"min":[0],"type":"SCALAR"},{"bufferView":30,"componentType":5126,"count":3,"max":[1,1.2000000476837158,1],"min":[1,1,1],"type":"VEC3"},{"bufferView":31,"componentType":5126,"count":3,"max":[1.5416699647903442],"min":[0],"type":"SCALAR"},{"bufferView":32,"componentType":5126,"count":3,"max":[1,1.2000000476837158,1.2000000476837158],"min":[1,1,1],"type":"VEC3"},{"bufferView":33,"componentType":5126,"count":3,"max":[1.5416699647903442],"min":[0],"type":"SCALAR"},{"bufferView":34,"componentType":5126,"count":3,"max":[1,1.0750000476837158,1.149999976158142],"min":[1,1,1],"type":"VEC3"},{"bufferView":35,"componentType":5126,"count":3,"max":[0.125],"min":[0],"type":"SCALAR"},{"bufferView":36,"componentType":5126,"count":3,"max":[1,1,1],"min":[1,0,1],"type":"VEC3"},{"bufferView":37,"componentType":5126,"count":3,"max":[0.125],"min":[0],"type":"SCALAR"},{"bufferView":38,"componentType":5126,"count":3,"max":[1,1,1],"min":[1,0,1],"type":"VEC3"},{"bufferView":39,"componentType":5126,"count":5,"max":[1.6666699647903442],"min":[0.041669998317956924],"type":"SCALAR"},{"bufferView":40,"componentType":5126,"count":5,"max":[0.05275624990463257,0.008025436662137508,0.003221530467271805,1],"min":[-0.06560572981834412,-0.00674782507121563,-0.0035022259689867496,0.9978166818618774],"type":"VEC4"},{"bufferView":41,"componentType":5126,"count":33,"max":[1.6666699647903442],"min":[0],"type":"SCALAR"},{"bufferView":42,"componentType":5126,"count":33,"max":[1.100000023841858,1,1],"min":[1,0.800000011920929,1],"type":"VEC3"},{"bufferView":43,"componentType":5126,"count":5,"max":[1.6666699647903442],"min":[0],"type":"SCALAR"},{"bufferView":44,"componentType":5126,"count":5,"max":[0.08600135147571564,0,0,1],"min":[-0.06655427813529968,-0.007779870647937059,-0.003562419442459941,0.996261715888977],"type":"VEC4"},{"bufferView":45,"componentType":5126,"count":5,"max":[1.6666699647903442],"min":[0],"type":"SCALAR"},{"bufferView":46,"componentType":5126,"count":5,"max":[1,1.2000000476837158,1],"min":[1,1,1],"type":"VEC3"},{"bufferView":47,"componentType":5126,"count":4,"max":[1.25],"min":[0],"type":"SCALAR"},{"bufferView":48,"componentType":5126,"count":4,"max":[1,1.2000000476837158,1],"min":[1,1,1],"type":"VEC3"},{"bufferView":49,"componentType":5126,"count":3,"max":[0.25],"min":[0],"type":"SCALAR"},{"bufferView":50,"componentType":5126,"count":3,"max":[1,1,1.059999942779541],"min":[1,1,1],"type":"VEC3"},{"bufferView":51,"componentType":5126,"count":4,"max":[0.25],"min":[0],"type":"SCALAR"},{"bufferView":52,"componentType":5126,"count":4,"max":[0,0.34375,0.0625],"min":[0,0.34375,-0.125],"type":"VEC3"},{"bufferView":53,"componentType":5126,"count":3,"max":[0.25],"min":[0],"type":"SCALAR"},{"bufferView":54,"componentType":5126,"count":3,"max":[1,1,1],"min":[1,1,0.9399999976158142],"type":"VEC3"},{"bufferView":55,"componentType":5126,"count":4,"max":[0.25],"min":[0],"type":"SCALAR"},{"bufferView":56,"componentType":5126,"count":4,"max":[0,0.1875,0.0625],"min":[0,0.1875,-0.0625],"type":"VEC3"},{"bufferView":57,"componentType":5126,"count":4,"max":[0.25],"min":[0],"type":"SCALAR"},{"bufferView":58,"componentType":5126,"count":4,"max":[0,0.5,0.0625],"min":[0,0.5,-0.0625],"type":"VEC3"},{"bufferView":59,"componentType":5126,"count":3,"max":[0.1666666716337204],"min":[0],"type":"SCALAR"},{"bufferView":60,"componentType":5126,"count":3,"max":[0,0.4375,0.0625],"min":[0,0.4375,-0.125],"type":"VEC3"}],"materials":[{"pbrMetallicRoughness":{"metallicFactor":0,"roughnessFactor":1,"baseColorTexture":{"index":0}},"alphaMode":"MASK","alphaCutoff":0.05,"doubleSided":true},{"pbrMetallicRoughness":{"metallicFactor":0,"roughnessFactor":1,"baseColorTexture":{"index":1}},"alphaMode":"MASK","alphaCutoff":0.05,"doubleSided":true},{"pbrMetallicRoughness":{"metallicFactor":0,"roughnessFactor":1,"baseColorTexture":{"index":2}},"alphaMode":"MASK","alphaCutoff":0.05,"doubleSided":true}],"textures":[{"sampler":0,"source":0,"name":"bonki_eye_texture.png"},{"sampler":1,"source":1,"name":"bonki_eye_reflection_texture.png"},{"sampler":2,"source":2,"name":"bonki_eye_shine_texture.png"}],"samplers":[{"magFilter":9728,"minFilter":9728,"wrapS":33071,"wrapT":33071},{"magFilter":9728,"minFilter":9728,"wrapS":33071,"wrapT":33071},{"magFilter":9728,"minFilter":9728,"wrapS":33071,"wrapT":33071}],"images":[{"mimeType":"image/png","name":"bonki_eye_texture.png","uri":"bonki_eye_texture.png"},{"mimeType":"image/png","name":"bonki_eye_reflection_texture.png","uri":"bonki_eye_reflection_texture.png"},{"mimeType":"image/png","name":"bonki_eye_shine_texture.png","uri":"bonki_eye_shine_texture.png"}],"meshes":[{"primitives":[{"mode":4,"attributes":{"POSITION":0,"NORMAL":1,"TEXCOORD_0":2,"JOINTS_0":3,"WEIGHTS_0":4},"indices":5,"material":0},{"mode":4,"attributes":{"POSITION":0,"NORMAL":1,"TEXCOORD_0":2,"JOINTS_0":3,"WEIGHTS_0":4},"indices":6,"material":1},{"mode":4,"attributes":{"POSITION":0,"NORMAL":1,"TEXCOORD_0":2,"JOINTS_0":3,"WEIGHTS_0":4},"indices":7,"material":2},{"mode":4,"attributes":{"POSITION":0,"NORMAL":1,"TEXCOORD_0":2,"JOINTS_0":3,"WEIGHTS_0":4},"indices":8,"material":0},{"mode":4,"attributes":{"POSITION":0,"NORMAL":1,"TEXCOORD_0":2,"JOINTS_0":3,"WEIGHTS_0":4},"indices":9,"material":1}]}],"skins":[{"inverseBindMatrices":10,"joints":[10,9,8,1,0,4,2,3,7,5,6],"skeleton":10}],"animations":[{"name":"idle","samplers":[{"input":11,"output":12,"interpolation":"LINEAR"},{"input":13,"output":14,"interpolation":"LINEAR"},{"input":15,"output":16,"interpolation":"LINEAR"},{"input":17,"output":18,"interpolation":"LINEAR"},{"input":19,"output":20,"interpolation":"LINEAR"},{"input":21,"output":22,"interpolation":"LINEAR"},{"input":23,"output":24,"interpolation":"LINEAR"},{"input":25,"output":26,"interpolation":"LINEAR"},{"input":27,"output":28,"interpolation":"LINEAR"},{"input":29,"output":30,"interpolation":"LINEAR"},{"input":31,"output":32,"interpolation":"LINEAR"},{"input":33,"output":34,"interpolation":"LINEAR"}],"channels":[{"sampler":0,"target":{"node":10,"path":"rotation"}},{"sampler":1,"target":{"node":9,"path":"translation"}},{"sampler":2,"target":{"node":9,"path":"rotation"}},{"sampler":3,"target":{"node":9,"path":"scale"}},{"sampler":4,"target":{"node":8,"path":"rotation"}},{"sampler":5,"target":{"node":1,"path":"translation"}},{"sampler":6,"target":{"node":1,"path":"scale"}},{"sampler":7,"target":{"node":0,"path":"translation"}},{"sampler":8,"target":{"node":0,"path":"rotation"}},{"sampler":9,"target":{"node":0,"path":"scale"}},{"sampler":10,"target":{"node":4,"path":"scale"}},{"sampler":11,"target":{"node":7,"path":"scale"}}]},{"name":"blink","samplers":[{"input":35,"output":36,"interpolation":"LINEAR"},{"input":37,"output":38,"interpolation":"LINEAR"}],"channels":[{"sampler":0,"target":{"node":4,"path":"scale"}},{"sampler":1,"target":{"node":7,"path":"scale"}}]},{"name":"sway","samplers":[{"input":39,"output":40,"interpolation":"LINEAR"},{"input":41,"output":42,"interpolation":"LINEAR"},{"input":43,"output":44,"interpolation":"LINEAR"},{"input":45,"output":46,"interpolation":"LINEAR"},{"input":47,"output":48,"interpolation":"LINEAR"}],"channels":[{"sampler":0,"target":{"node":10,"path":"rotation"}},{"sampler":1,"target":{"node":10,"path":"scale"}},{"sampler":2,"target":{"node":8,"path":"rotation"}},{"sampler":3,"target":{"node":4,"path":"scale"}},{"sampler":4,"target":{"node":7,"path":"scale"}}]},{"name":"shake","samplers":[{"input":49,"output":50,"interpolation":"LINEAR"},{"input":51,"output":52,"interpolation":"LINEAR"},{"input":53,"output":54,"interpolation":"LINEAR"},{"input":55,"output":56,"interpolation":"LINEAR"},{"input":57,"output":58,"interpolation":"LINEAR"},{"input":59,"output":60,"interpolation":"LINEAR"}],"channels":[{"sampler":0,"target":{"node":10,"path":"scale"}},{"sampler":1,"target":{"node":9,"path":"translation"}},{"sampler":2,"target":{"node":9,"path":"scale"}},{"sampler":3,"target":{"node":8,"path":"translation"}},{"sampler":4,"target":{"node":1,"path":"translation"}},{"sampler":5,"target":{"node":0,"path":"translation"}}]}]}