{"asset":{"version":"2.0","generator":"Blockbench 5.0.4 glTF exporter"},"scenes":[{"nodes":[11],"name":"blockbench_export"}],"scene":0,"nodes":[{"translation":[0,0.4375,0],"name":"horn"},{"translation":[0,0.5,0],"name":"head_top","children":[0]},{"rotation":[0,0,0.7960020025346219,0.6052939880428945],"translation":[-0.015625,0.140625,-0.025],"name":"eye_base_left_shine"},{"rotation":[0,0,0.8191520442889917,0.5735764363510462],"translation":[0,0.0875,0.01875],"name":"eye_base_left_reflection"},{"translation":[-0.7875,0.25,-0.4375],"name":"eye_base_left","children":[2,3]},{"rotation":[0,0,0.7960020025346219,0.6052939880428945],"translation":[-0.015625,0.140625,-0.025],"name":"eye_base_right_shine"},{"rotation":[0,0,0.8191520442889917,0.5735764363510462],"translation":[0,0.0875,0.01875],"name":"eye_base_right_reflection"},{"translation":[-0.7875,0.25,0.453125],"name":"eye_base_right","children":[5,6]},{"translation":[0,0.1875,0],"name":"skull","children":[1,4,7]},{"translation":[0,0.34375,0],"name":"spine_neck","children":[8]},{"translation":[0,-0.6875,0],"name":"spine_base","children":[9]},{"name":"armature","mesh":0,"children":[10],"skin":0}],"bufferViews":[{"buffer":0,"byteOffset":0,"byteLength":23472,"target":34962,"byteStride":12},{"buffer":0,"byteOffset":23472,"byteLength":23472,"target":34962,"byteStride":12},{"buffer":0,"byteOffset":46944,"byteLength":15648,"target":34962,"byteStride":8},{"buffer":0,"byteOffset":62592,"byteLength":15648,"target":34962,"byteStride":8},{"buffer":0,"byteOffset":78240,"byteLength":31296,"target":34962,"byteStride":16},{"buffer":0,"byteOffset":109536,"byteLength":5040,"target":34963},{"buffer":0,"byteOffset":114576,"byteLength":72,"target":34963},{"buffer":0,"byteOffset":114648,"byteLength":72,"target":34963},{"buffer":0,"byteOffset":114720,"byteLength":144,"target":34963},{"buffer":0,"byteOffset":114864,"byteLength":72,"target":34963},{"buffer":0,"byteOffset":114936,"byteLength":72,"target":34963},{"buffer":0,"byteOffset":115008,"byteLength":704},{"buffer":0,"byteOffset":115712,"byteLength":16},{"buffer":0,"byteOffset":115728,"byteLength":64},{"buffer":0,"byteOffset":115792,"byteLength":16},{"buffer":0,"byteOffset":115808,"byteLength":48},{"buffer":0,"byteOffset":115856,"byteLength":16},{"buffer":0,"byteOffset":115872,"byteLength":64},{"buffer":0,"byteOffset":115936,"byteLength":12},{"buffer":0,"byteOffset":115948,"byteLength":36},{"buffer":0,"byteOffset":115984,"byteLength":12},{"buffer":0,"byteOffset":115996,"byteLength":48},{"buffer":0,"byteOffset":116044,"byteLength":12},{"buffer":0,"byteOffset":116056,"byteLength":36},{"buffer":0,"byteOffset":116092,"byteLength":12},{"buffer":0,"byteOffset":116104,"byteLength":36},{"buffer":0,"byteOffset":116140,"byteLength":8},{"buffer":0,"byteOffset":116148,"byteLength":24},{"buffer":0,"byteOffset":116172,"byteLength":8},{"buffer":0,"byteOffset":116180,"byteLength":32},{"buffer":0,"byteOffset":116212,"byteLength":12},{"buffer":0,"byteOffset":116224,"byteLength":36},{"buffer":0,"byteOffset":116260,"byteLength":12},{"buffer":0,"byteOffset":116272,"byteLength":36},{"buffer":0,"byteOffset":116308,"byteLength":12},{"buffer":0,"byteOffset":116320,"byteLength":36},{"buffer":0,"byteOffset":116356,"byteLength":12},{"buffer":0,"byteOffset":116368,"byteLength":36},{"buffer":0,"byteOffset":116404,"byteLength":12},{"buffer":0,"byteOffset":116416,"byteLength":36},{"buffer":0,"byteOffset":116452,"byteLength":20},{"buffer":0,"byteOffset":116472,"byteLength":80},{"buffer":0,"byteOffset":116552,"byteLength":132},{"buffer":0,"byteOffset":116684,"byteLength":396},{"buffer":0,"byteOffset":117080,"byteLength":20},{"buffer":0,"byteOffset":117100,"byteLength":80},{"buffer":0,"byteOffset":117180,"byteLength":20},{"buffer":0,"byteOffset":117200,"byteLength":60},{"buffer":0,"byteOffset":117260,"byteLength":16},{"buffer":0,"byteOffset":117276,"byteLength":48},{"buffer":0,"byteOffset":117324,"byteLength":12},{"buffer":0,"byteOffset":117336,"byteLength":36},{"buffer":0,"byteOffset":117372,"byteLength":16},{"buffer":0,"byteOffset":117388,"byteLength":48},{"buffer":0,"byteOffset":117436,"byteLength":12},{"buffer":0,"byteOffset":117448,"byteLength":36},{"buffer":0,"byteOffset":117484,"byteLength":16},{"buffer":0,"byteOffset":117500,"byteLength":48},{"buffer":0,"byteOffset":117548,"byteLength":16},{"buffer":0,"byteOffset":117564,"byteLength":48},{"buffer":0,"byteOffset":117612,"byteLength":12},{"buffer":0,"byteOffset":117624,"byteLength":36}],"buffers":[{"byteLength":117660,"uri":"data:application/octet-stream;base64,"}],"accessors":[{"bufferView":0,"componentType":5126,"count":1956,"max":[0.9375,1.0625,0.9323644042015076],"min":[-0.9375,-0.671875,-0.9323644042015076],"type":"VEC3"},{"bufferView":1,"componentType":5126,"count":1956,"max":[1,1,0.9890140891075134],"min":[-1,-1,-0.9890140891075134],"type":"VEC3"},{"bufferView":2,"componentType":5126,"count":1956,"max":[3.2352383136749268,3.2352383136749268],"min":[0,0],"type":"VEC2"},{"bufferView":3,"componentType":5123,"count":1956,"max":[10,3,2,3],"min":[0,0,0,0],"type":"VEC4"},{"bufferView":4,"componentType":5126,"count":1956,"max":[1,0.4999749958515167,0.11152872443199158,0.1113164871931076],"min":[0.44328394532203674,0,0,0],"type":"VEC4"},{"bufferView":5,"componentType":5123,"count":2520,"max":[1739],"min":[0],"type":"SCALAR"},{"bufferView":6,"componentType":5123,"count":36,"max":[1775],"min":[1740],"type":"SCALAR"},{"bufferView":7,"componentType":5123,"count":36,"max":[1811],"min":[1776],"type":"SCALAR"},{"bufferView":8,"componentType":5123,"count":72,"max":[1883],"min":[1812],"type":"SCALAR"},{"bufferView":9,"componentType":5123,"count":36,"max":[1919],"min":[1884],"type":"SCALAR"},{"bufferView":10,"componentType":5123,"count":36,"max":[1955],"min":[1920],"type":"SCALAR"},{"bufferView":11,"componentType":5126,"count":11,"max":[1,0,0,0,0.9636304378509521,1,0,0,0,0,1,0,0.7875000238418579,0.6875,0.4625000059604645,1],"min":[-0.3420201539993286,-0.9636304378509521,0,0,0,-0.3420201539993286,0,0,0,0,1,0,-0.4404767155647278,-0.78125,-0.47187501192092896,1],"type":"MAT4"},{"bufferView":12,"componentType":5126,"count":4,"max":[1.5416699647903442],"min":[0],"type":"SCALAR"},{"bufferView":13,"componentType":5126,"count":4,"max":[0.02181488461792469,0,0,1],"min":[-0.02181488461792469,0,0,0.9997619986534119],"type":"VEC4"},{"bufferView":14,"componentType":5126,"count":4,"max":[1.5416699647903442],"min":[0],"type":"SCALAR"},{"bufferView":15,"componentType":5126,"count":4,"max":[0,0.46875,0],"min":[0,0.34375,0],"type":"VEC3"},{"bufferView":16,"componentType":5126,"count":4,"max":[1.5416699647903442],"min":[0],"type":"SCALAR"},{"bufferView":17,"componentType":5126,"count":4,"max":[0.10886687785387039,0,0,1],"min":[0,0,0,0.9940563440322876],"type":"VEC4"},{"bufferView":18,"componentType":5126,"count":3,"max":[1.5416699647903442],"min":[0],"type":"SCALAR"},{"bufferView":19,"componentType":5126,"count":3,"max":[1,1,1],"min":[1,1,1],"type":"VEC3"},{"bufferView":20,"componentType":5126,"count":3,"max":[1.5416699647903442],"min":[0],"type":"SCALAR"},{"bufferView":21,"componentType":5126,"count":3,"max":[0,0,0,1],"min":[-0.10886687785387039,0,0,0.9940563440322876],"type":"VEC4"},{"bufferView":22,"componentType":5126,"count":3,"max":[1.5416699647903442],"min":[0],"type":"SCALAR"},{"bufferView":23,"componentType":5126,"count":3,"max":[0,0.5,0],"min":[0,0.375,0],"type":"VEC3"},{"bufferView":24,"componentType":5126,"count":3,"max":[1.5416699647903442],"min":[0],"type":"SCALAR"},{"bufferView":25,"componentType":5126,"count":3,"max":[1,1,1],"min":[1,1,1],"type":"VEC3"},{"bufferView":26,"componentType":5126,"count":2,"max":[1.5416699647903442],"min":[0],"type":"SCALAR"},{"bufferView":27,"componentType":5126,"count":2,"max":[0,0.4375,0],"min":[0,0.4375,0],"type":"VEC3"},{"bufferView":28,"componentType":5126,"count":2,"max":[1.5416699647903442],"min":[0],"type":"SCALAR"},{"bufferView":29,"componentType":5126,"count":2,"max":[0,0,0,1],"min":[0,0,0,1],"type":"VEC4"},{"bufferView":30,"componentType":5126,"count":3,"max":[1.5416699647903442],"min":[0],"type":"SCALAR"},{"bufferView":31,"componentType":5126,"count":3,"max":[1,1.2000000476837158,1],"min":[1,1,1],"type":"VEC3"},{"bufferView":32,"componentType":5126,"count":3,"max":[1.5416699647903442],"min":[0],"type":"SCALAR"},{"bufferView":33,"componentType":5126,"count":3,"max":[1,1.2000000476837158,1.2000000476837158],"min":[1,1,1],"type":"VEC3"},{"bufferView":34,"componentType":5126,"count":3,"max":[1.5416699647903442],"min":[0],"type":"SCALAR"},{"bufferView":35,"componentType":5126,"count":3,"max":[1,1.0750000476837158,1.149999976158142],"min":[1,1,1],"type":"VEC3"},{"bufferView":36,"componentType":5126,"count":3,"max":[0.125],"min":[0],"type":"SCALAR"},{"bufferView":37,"componentType":5126,"count":3,"max":[1,1,1],"min":[1,0,1],"type":"VEC3"},{"bufferView":38,"componentType":5126,"count":3,"max":[0.125],"min":[0],"type":"SCALAR"},{"bufferView":39,"componentType":5126,"count":3,"max":[1,1,1],"min":[1,0,1],"type":"VEC3"},{"bufferView":40,"componentType":5126,"count":5,"max":[1.6666699647903442],"min":[0.041669998317956924],"type":"SCALAR"},{"bufferView":41,"componentType":5126,"count":5,"max":[0.05275624990463257,0.008025436662137508,0.003221530467271805,1],"min":[-0.06560572981834412,-0.00674782507121563,-0.0035022259689867496,0.9978166818618774],"type":"VEC4"},{"bufferView":42,"componentType":5126,"count":33,"max":[1.6666699647903442],"min":[0],"type":"SCALAR"},{"bufferView":43,"componentType":5126,"count":33,"max":[1.100000023841858,1,1],"min":[1,0.800000011920929,1],"type":"VEC3"},{"bufferView":44,"componentType":5126,"count":5,"max":[1.6666699647903442],"min":[0],"type":"SCALAR"},{"bufferView":45,"componentType":5126,"count":5,"max":[0.08600135147571564,0,0,1],"min":[-0.06655427813529968,-0.007779870647937059,-0.003562419442459941,0.996261715888977],"type":"VEC4"},{"bufferView":46,"componentType":5126,"count":5,"max":[1.6666699647903442],"min":[0],"type":"SCALAR"},{"bufferView":47,"componentType":5126,"count":5,"max":[1,1.2000000476837158,1],"min":[1,1,1],"type":"VEC3"},{"bufferView":48,"componentType":5126,"count":4,"max":[1.25],"min":[0],"type":"SCALAR"},{"bufferView":49,"componentType":5126,"count":4,"max":[1,1.2000000476837158,1],"min":[1,1,1],"type":"VEC3"},{"bufferView":50,"componentType":5126,"count":3,"max":[0.25],"min":[0],"type":"SCALAR"},{"bufferView":51,"componentType":5126,"count":3,"max":[1,1,1.059999942779541],"min":[1,1,1],"type":"VEC3"},{"bufferView":52,"componentType":5126,"count":4,"max":[0.25],"min":[0],"type":"SCALAR"},{"bufferView":53,"componentType":5126,"count":4,"max":[0,0.34375,0.0625],"min":[0,0.34375,-0.125],"type":"VEC3"},{"bufferView":54,"componentType":5126,"count":3,"max":[0.25],"min":[0],"type":"SCALAR"},{"bufferView":55,"componentType":5126,"count":3,"max":[1,1,1],"min":[1,1,0.9399999976158142],"type":"VEC3"},{"bufferView":56,"componentType":5126,"count":4,"max":[0.25],"min":[0],"type":"SCALAR"},{"bufferView":57,"componentType":5126,"count":4,"max":[0,0.1875,0.0625],"min":[0,0.1875,-0.0625],"type":"VEC3"},{"bufferView":58,"componentType":5126,"count":4,"max":[0.25],"min":[0],"type":"SCALAR"},{"bufferView":59,"componentType":5126,"count":4,"max":[0,0.5,0.0625],"min":[0,0.5,-0.0625],"type":"VEC3"},{"bufferView":60,"componentType":5126,"count":3,"max":[0.16666999459266663],"min":[0],"type":"SCALAR"},{"bufferView":61,"componentType":5126,"count":3,"max":[0,0.4375,0.0625],"min":[0,0.4375,-0.125],"type":"VEC3"}],"materials":[{"pbrMetallicRoughness":{"metallicFactor":0,"roughnessFactor":1,"baseColorTexture":{"index":0}},"alphaMode":"MASK","alphaCutoff":0.05,"doubleSided":true},{"pbrMetallicRoughness":{"metallicFactor":0,"roughnessFactor":1,"baseColorTexture":{"index":1}},"alphaMode":"MASK","alphaCutoff":0.05,"doubleSided":true},{"pbrMetallicRoughness":{"metallicFactor":0,"roughnessFactor":1,"baseColorTexture":{"index":2}},"alphaMode":"MASK","alphaCutoff":0.05,"doubleSided":true},{"pbrMetallicRoughness":{"metallicFactor":0,"roughnessFactor":1,"baseColorTexture":{"index":3}},"alphaMode":"MASK","alphaCutoff":0.05,"doubleSided":true}],"textures":[{"sampler":0,"source":0,"name":"bonki_texture.png"},{"sampler":1,"source":1,"name":"bonki_eye_texture.png"},{"sampler":2,"source":2,"name":"bonki_eye_reflection_texture.png"},{"sampler":3,"source":3,"name":"bonki_eye_shine_texture.png"}],"samplers":[{"magFilter":9728,"minFilter":9728,"wrapS":33071,"wrapT":33071},{"magFilter":9728,"minFilter":9728,"wrapS":33071,"wrapT":33071},{"magFilter":9728,"minFilter":9728,"wrapS":33071,"wrapT":33071},{"magFilter":9728,"minFilter":9728,"wrapS":33071,"wrapT":33071}],"images":[{"mimeType":"image/png","name":"bonki_texture.png","uri":"bonki_texture.png"},{"mimeType":"image/png","name":"bonki_eye_texture.png","uri":"bonki_eye_texture.png"},{"mimeType":"image/png","name":"bonki_eye_reflection_texture.png","uri":"bonki_eye_reflection_texture.png"},{"mimeType":"image/png","name":"bonki_eye_shine_texture.png","uri":"bonki_eye_shine_texture.png"}],"meshes":[{"primitives":[{"mode":4,"attributes":{"POSITION":0,"NORMAL":1,"TEXCOORD_0":2,"JOINTS_0":3,"WEIGHTS_0":4},"indices":5,"material":0},{"mode":4,"attributes":{"POSITION":0,"NORMAL":1,"TEXCOORD_0":2,"JOINTS_0":3,"WEIGHTS_0":4},"indices":6,"material":1},{"mode":4,"attributes":{"POSITION":0,"NORMAL":1,"TEXCOORD_0":2,"JOINTS_0":3,"WEIGHTS_0":4},"indices":7,"material":2},{"mode":4,"attributes":{"POSITION":0,"NORMAL":1,"TEXCOORD_0":2,"JOINTS_0":3,"WEIGHTS_0":4},"indices":8,"material":3},{"mode":4,"attributes":{"POSITION":0,"NORMAL":1,"TEXCOORD_0":2,"JOINTS_0":3,"WEIGHTS_0":4},"indices":9,"material":1},{"mode":4,"attributes":{"POSITION":0,"NORMAL":1,"TEXCOORD_0":2,"JOINTS_0":3,"WEIGHTS_0":4},"indices":10,"material":2}]}],"skins":[{"inverseBindMatrices":11,"joints":[10,9,8,1,0,4,2,3,7,5,6],"skeleton":10}],"animations":[{"name":"idle","samplers":[{"input":12,"output":13,"interpolation":"LINEAR"},{"input":14,"output":15,"interpolation":"LINEAR"},{"input":16,"output":17,"interpolation":"LINEAR"},{"input":18,"output":19,"interpolation":"LINEAR"},{"input":20,"output":21,"interpolation":"LINEAR"},{"input":22,"output":23,"interpolation":"LINEAR"},{"input":24,"output":25,"interpolation":"LINEAR"},{"input":26,"output":27,"interpolation":"LINEAR"},{"input":28,"output":29,"interpolation":"LINEAR"},{"input":30,"output":31,"interpolation":"LINEAR"},{"input":32,"output":33,"interpolation":"LINEAR"},{"input":34,"output":35,"interpolation":"LINEAR"}],"channels":[{"sampler":0,"target":{"node":10,"path":"rotation"}},{"sampler":1,"target":{"node":9,"path":"translation"}},{"sampler":2,"target":{"node":9,"path":"rotation"}},{"sampler":3,"target":{"node":9,"path":"scale"}},{"sampler":4,"target":{"node":8,"path":"rotation"}},{"sampler":5,"target":{"node":1,"path":"translation"}},{"sampler":6,"target":{"node":1,"path":"scale"}},{"sampler":7,"target":{"node":0,"path":"translation"}},{"sampler":8,"target":{"node":0,"path":"rotation"}},{"sampler":9,"target":{"node":0,"path":"scale"}},{"sampler":10,"target":{"node":4,"path":"scale"}},{"sampler":11,"target":{"node":7,"path":"scale"}}]},{"name":"blink","samplers":[{"input":36,"output":37,"interpolation":"LINEAR"},{"input":38,"output":39,"interpolation":"LINEAR"}],"channels":[{"sampler":0,"target":{"node":4,"path":"scale"}},{"sampler":1,"target":{"node":7,"path":"scale"}}]},{"name":"sway","samplers":[{"input":40,"output":41,"interpolation":"LINEAR"},{"input":42,"output":43,"interpolation":"LINEAR"},{"input":44,"output":45,"interpolation":"LINEAR"},{"input":46,"output":47,"interpolation":"LINEAR"},{"input":48,"output":49,"interpolation":"LINEAR"}],"channels":[{"sampler":0,"target":{"node":10,"path":"rotation"}},{"sampler":1,"target":{"node":10,"path":"scale"}},{"sampler":2,"target":{"node":8,"path":"rotation"}},{"sampler":3,"target":{"node":4,"path":"scale"}},{"sampler":4,"target":{"node":7,"path":"scale"}}]},{"name":"shake","samplers":[{"input":50,"output":51,"interpolation":"LINEAR"},{"input":52,"output":53,"interpolation":"LINEAR"},{"input":54,"output":55,"interpolation":"LINEAR"},{"input":56,"output":57,"interpolation":"LINEAR"},{"input":58,"output":59,"interpolation":"LINEAR"},{"input":60,"output":61,"interpolation":"LINEAR"}],"channels":[{"sampler":0,"target":{"node":10,"path":"scale"}},{"sampler":1,"target":{"node":9,"path":"translation"}},{"sampler":2,"target":{"node":9,"path":"scale"}},{"sampler":3,"target":{"node":8,"path":"translation"}},{"sampler":4,"target":{"node":1,"path":"translation"}},{"sampler":5,"target":{"node":0,"path":"translation"}}]}]}